HIERARCHY
ROOT Hips
{
  OFFSET -102.467 93.6631 130.069
  CHANNELS 6 Xposition Yposition Zposition Zrotation Xrotation Yrotation
  JOINT LeftUpLeg
  {
    OFFSET 8.64259 1.95398 -2.38835
    CHANNELS 3 Zrotation Xrotation Yrotation
    JOINT LeftLeg
    {
      OFFSET 43.7702 0 0
      CHANNELS 3 Zrotation Xrotation Yrotation
      JOINT LeftFoot
      {
        OFFSET 40.6238 0 0
        CHANNELS 3 Zrotation Xrotation Yrotation
        JOINT LeftToeBase
        {
          OFFSET 12.7242 0 0
          CHANNELS 3 Zrotation Xrotation Yrotation
          End Site
          {
            OFFSET 0 0 0
          }
        }
      }
    }
  }
  JOINT RightUpLeg
  {
    OFFSET -8.2249 1.95398 -2.59336
    CHANNELS 3 Zrotation Xrotation Yrotation
    JOINT RightLeg
    {
      OFFSET 43.5653 0 0
      CHANNELS 3 Zrotation Xrotation Yrotation
      JOINT RightFoot
      {
        OFFSET 40.6238 0 0
        CHANNELS 3 Zrotation Xrotation Yrotation
        JOINT RightToeBase
        {
          OFFSET 12.7242 0 0
          CHANNELS 3 Zrotation Xrotation Yrotation
          End Site
          {
            OFFSET 0 0 0
          }
        }
      }
    }
  }
  JOINT Spine
  {
    OFFSET 0.165834 0.87714 6.61349
    CHANNELS 3 Zrotation Xrotation Yrotation
    JOINT Spine1
    {
      OFFSET 7.38963 1.71661e-005 0
      CHANNELS 3 Zrotation Xrotation Yrotation
      JOINT Spine2
      {
        OFFSET 11.9445 1.14441e-005 0
        CHANNELS 3 Zrotation Xrotation Yrotation
        JOINT Spine3
        {
          OFFSET 14.7254 4.19617e-005 0
          CHANNELS 3 Zrotation Xrotation Yrotation
          JOINT Spine4
          {
            OFFSET 10.9679 0 0
            CHANNELS 3 Zrotation Xrotation Yrotation
            JOINT RightShoulder
            {
              OFFSET 2.46616 -1.6653 3.69651
              CHANNELS 3 Zrotation Xrotation Yrotation
              JOINT RightArm
              {
                OFFSET 13.0012 0 0
                CHANNELS 3 Zrotation Xrotation Yrotation
                JOINT RightForeArm
                {
                  OFFSET 28.7848 1.52588e-005 0
                  CHANNELS 3 Zrotation Xrotation Yrotation
                  JOINT RightHand
                  {
                    OFFSET 26.5688 1.52588e-005 0
                    CHANNELS 3 Zrotation Xrotation Yrotation
                    End Site
                    {
                      OFFSET 0 0 0
                    }
                  }
                }
              }
            }
            JOINT LeftShoulder
            {
              OFFSET 2.38034 -1.29275 -3.7523
              CHANNELS 3 Zrotation Xrotation Yrotation
              JOINT LeftArm
              {
                OFFSET 16.3182 6.10351e-005 0
                CHANNELS 3 Zrotation Xrotation Yrotation
                JOINT LeftForeArm
                {
                  OFFSET 27.0901 0 0
                  CHANNELS 3 Zrotation Xrotation Yrotation
                  JOINT LeftHand
                  {
                    OFFSET 24.5451 1.52588e-005 0
                    CHANNELS 3 Zrotation Xrotation Yrotation
                    End Site
                    {
                      OFFSET 0 0 0
                    }
                  }
                }
              }
            }
            JOINT Neck
            {
              OFFSET 5.0226 -0.0266342 0
              CHANNELS 3 Zrotation Xrotation Yrotation
              JOINT Head
              {
                OFFSET 6.69363 2.86102e-005 0
                CHANNELS 3 Zrotation Xrotation Yrotation
                End Site
                {
                  OFFSET 0 0 0
                }
              }
            }
          }
        }
      }
    }
  }
}
MOTION
Frames:	15
Frame Time:	0.0416667
-133.376 13.6688 48.9117 -8.21668 -10.1611 -94.1774 -177.954 7.04912 100.097 -27.0666 5.98603 6.60741 59.8358 -4.27485 -23.6862 76.4665 -8.10549 -3.93267 169.638 7.44741 67.7041 -33.5201 2.5094 -3.94173 68.0873 14.1546 38.7901 30.5374 12.2282 71.7209 -0.242325 7.31405 -89.7479 12.2464 -0.362109 0.543816 0.575386 -0.337815 0.5592 -21.9596 -0.508783 0.409841 -1.94694 -0.508802 0.409853 105.099 -0.71638 -70.5848 52.2706 63.6843 -70.8739 -13.1353 -12.6345 -119.605 -11.372 -0.655709 1.57773 -75.9932 -10.5845 101.912 -53.2533 -41.9311 -86.2439 27.1017 -2.18528 -114.548 -8.88613 -0.187899 -2.65887 27.7456 1.35191 23.3149 -5.87425 -7.35446 -18.1544 
-133.36 13.6808 48.9409 -8.38087 -10.1473 -94.1653 -177.968 6.86039 100.1 -27.0663 5.75534 6.65603 59.9382 -4.36004 -23.9884 69.0019 -7.59628 -5.84124 169.533 7.25407 67.6716 -33.6057 1.51805 -3.85994 68.9434 13.5953 38.0317 35.6657 13.5225 68.0475 -0.223588 7.31227 -89.7681 12.2499 -0.334441 0.500395 0.578871 -0.312104 0.514637 -21.9561 -0.469389 0.376759 -1.94349 -0.469373 0.376756 105.043 -0.753126 -70.8174 50.1969 63.9226 -69.2212 -14.1953 -11.8733 -119.69 -11.7249 -0.676952 1.58317 -77.0544 -8.47011 99.0509 -56.9781 -45.8091 -86.103 25.3783 -0.455094 -115.05 -8.75529 -0.192887 -2.50586 26.8322 1.63613 24.6026 -5.31328 -7.47831 -19.4273 
-133.409 13.7373 49.0327 -8.64691 -9.99819 -94.4207 -178.151 6.45513 99.7977 -26.8363 5.7305 6.64293 59.8198 -4.23009 -23.8658 70.9081 -7.96448 -5.81169 169.323 7.4076 67.334 -34.1581 0.677449 -3.74301 69.6445 12.9708 36.5854 38.2824 13.9987 65.9154 -0.177459 7.30795 -89.7731 12.2583 -0.245204 0.480409 0.587254 -0.223832 0.490726 -21.9476 -0.378255 0.384502 -1.93492 -0.378251 0.384498 105.122 -0.35892 -70.3611 47.9951 63.1695 -67.3393 -14.8201 -11.1136 -119.594 -11.9322 -0.69277 1.61985 -76.4651 -8.99405 100.729 -57.7807 -42.8803 -86.3796 27.1045 -1.00953 -114.429 -9.7754 -0.131681 -3.76935 27.4188 1.65817 24.1098 -8.52772 -6.9176 -17.5101 
-133.448 13.7813 49.171 -8.95501 -9.8909 -94.779 -178.501 6.04332 99.4767 -26.7021 4.20638 6.8002 59.7954 -4.67512 -25.836 67.4186 -7.82927 -7.10774 169.029 7.38178 66.8536 -34.3775 0.721388 -3.69381 70.4317 12.605 36.131 38.7535 14.0944 65.6699 -0.157823 7.28283 -89.7879 12.3085 -0.212977 0.447489 0.637447 -0.193069 0.456414 -21.8974 -0.337607 0.36281 -1.88476 -0.337603 0.362783 104.944 0.199371 -70.8589 45.3574 63.3153 -65.0307 -14.5702 -11.134 -119.421 -12.7954 -0.755536 1.72774 -76.22 -8.94404 101.434 -60.0284 -41.394 -85.8263 29.9355 -2.82396 -116.135 -11.8744 -0.0758481 -4.53001 24.911 1.73512 25.8598 -7.03183 -7.13948 -18.8433 
-133.451 13.8545 49.434 -9.27727 -9.56074 -95.3363 -178.822 5.53334 98.6273 -26.8758 5.59647 6.80491 59.8435 -4.20891 -23.4481 69.8032 -8.027 -6.44075 168.437 7.63653 65.7957 -34.545 1.29839 -3.52458 70.0951 12.9627 37.0572 39.6415 13.8231 63.4932 -0.118826 7.22949 -89.8204 12.415 -0.150675 0.375805 0.74398 -0.134007 0.382071 -21.7909 -0.25668 0.313134 -1.77826 -0.256668 0.313132 104.671 1.73273 -71.3997 42.6613 63.0083 -61.8058 -14.1164 -11.2111 -118.99 -13.0695 -0.778177 1.78392 -76.211 -7.82005 101.579 -63.7386 -40.8127 -81.1411 29.1245 -6.58924 -123.765 -13.5412 -0.12496 -4.01771 20.1947 1.02154 28.1064 -4.11431 -7.94477 -21.0212 
-133.452 13.8868 49.6295 -10.0042 -9.44742 -96.1298 -179.254 4.58316 97.7826 -26.7045 5.20669 6.87043 59.8249 -4.2709 -23.7832 69.5515 -8.02143 -6.54172 167.647 7.65189 64.5206 -34.9596 2.13823 -3.35222 69.4665 13.3789 37.7397 34.1221 12.2831 65.1588 0.0818115 7.26888 -89.7648 12.3353 0.274246 0.438364 0.664332 0.29329 0.42588 -21.8703 0.129806 0.500535 -1.85769 0.129824 0.500523 104.914 2.17735 -70.1435 39.1339 64.0658 -58.2464 -12.2501 -12.2496 -119.069 -12.7189 -0.751917 1.73835 -76.2397 -5.22764 101.851 -60.8073 -36.4889 -69.8191 22.6384 -9.51548 -132.757 -10.9556 -0.327215 -1.31851 17.4192 -0.694022 27.8208 -1.77806 -9.23849 -20.5054 
-133.26 13.9325 49.7139 -11.0054 -9.61488 -96.8563 -179.765 3.72372 97.1509 -26.9819 4.53232 7.13141 60.2599 -4.47225 -24.8298 68.8132 -7.65675 -6.07793 166.024 7.52715 63.265 -35.3946 4.54883 -2.44281 69.823 13.6653 38.7796 33.0205 12.8972 69.8463 0.109215 7.25526 -89.7911 12.3627 0.316354 0.381236 0.691766 0.332854 0.366948 -21.8431 0.187145 0.458686 -1.83043 0.187147 0.458702 104.295 4.23226 -72.1211 36.8369 66.2003 -53.8653 -8.83632 -14.842 -118.713 -13.5351 -0.723198 1.05251 -76.6153 -9.40561 100.19 -47.3584 -29.7252 -58.1307 23.7014 -17.4108 -134.368 -6.46936 -0.204196 -0.968355 10.1183 -1.74489 35.5241 2.69294 -11.601 -28.2676 
-133.026 13.9681 49.8033 -12.0846 -9.73906 -97.3363 179.971 2.84628 96.8221 -27.1713 4.26066 7.33119 59.5672 -4.84855 -25.0865 69.8799 -8.69298 -7.83579 164.39 7.37296 62.3128 -36.1728 6.94177 -1.39732 69.8619 14.014 39.7544 29.7817 12.123 72.8924 0.0171344 7.33278 -89.7994 12.2081 0.129127 0.385885 0.537066 0.146009 0.379858 -21.9976 0.00717615 0.406905 -1.98498 0.00719686 0.406858 104.319 4.09011 -72.0454 37.8711 66.2244 -55.1887 -7.40034 -15.8409 -118.383 -14.4519 -0.716607 0.588732 -77.8153 -13.0014 96.9083 -40.2835 -28.3045 -55.5782 21.9422 -15.0278 -131.605 -0.810618 -0.0226826 0.49514 10.0965 -1.16758 37.2226 2.53365 -11.4945 -29.6023 
-133.065 14.0209 50.0258 -12.7407 -9.54252 -97.6772 179.879 1.95944 96.3823 -26.8971 4.76659 7.28033 60.3794 -4.38579 -24.2714 69.1115 -8.26318 -7.27429 163.79 7.20779 61.7667 -36.3712 6.90182 -1.05288 69.8922 13.9903 39.6318 30.2993 12.3661 72.9468 -0.0620778 7.33619 -89.7967 12.2014 -0.0270494 0.408854 0.530346 -0.00902569 0.409637 -22.0043 -0.148685 0.381811 -1.99165 -0.148661 0.381815 104.03 3.17038 -73.6864 31.1535 65.6053 -49.6527 -7.7435 -15.0692 -118.14 -15.2619 -0.807112 0.972444 -78.2379 -13.9088 95.7495 -39.1062 -32.5924 -56.6853 15.2368 -7.35849 -131.756 -0.614935 -0.019277 0.272964 8.00294 -1.1748 39.7621 3.8034 -11.9423 -32.4947 
-133.125 14.0301 50.2759 -13.3468 -9.54027 -98.0931 179.605 1.18674 95.8982 -26.4922 3.93865 7.2499 59.8906 -4.59612 -25.0926 69.0702 -8.5478 -7.91988 163.503 6.95879 61.0558 -36.6608 6.34711 -1.10845 70.2968 13.7992 39.1783 37.3714 14.9953 70.8492 -0.105316 7.38276 -89.7584 12.1082 -0.0951149 0.49252 0.437211 -0.0733536 0.496181 -22.0974 -0.238748 0.441178 -2.08468 -0.238737 0.441148 104.007 2.11677 -74.1057 31.2619 65.8896 -50.8216 -9.43933 -14.112 -117.954 -14.7531 -0.800602 1.14069 -78.0107 -12.2504 96.3345 -42.1681 -35.0888 -59.5218 15.7993 -6.89392 -132.183 -3.35652 -0.116624 -0.960273 8.27763 -1.51057 39.4691 2.64123 -11.939 -32.1379 
-133.155 14.0598 50.3416 -13.9648 -9.90241 -98.3732 179.345 0.65871 95.6136 -26.5829 2.96148 7.35079 60.1668 -4.64957 -25.9646 68.5125 -7.78856 -6.51691 163.037 6.55515 60.5107 -36.8931 6.61331 -1.02094 70.3164 13.9928 39.4657 30.7634 11.8847 69.61 -0.102972 7.38013 -89.7345 12.1136 -0.079063 0.538634 0.442505 -0.0553168 0.541562 -22.0919 -0.237297 0.489961 -2.07924 -0.237308 0.48996 104.021 1.6509 -74.1794 28.3631 65.6398 -48.3238 -9.55794 -13.8526 -117.964 -15.2595 -0.833361 1.17626 -77.6399 -10.244 97.3099 -49.5143 -37.7085 -65.7672 15.5534 -3.382 -130.131 -6.99398 -0.226423 -1.17653 4.21326 -3.46153 42.0478 5.16905 -13.9019 -35.1968 
-133.034 14.0634 50.3246 -14.4102 -10.3804 -98.7599 179.131 0.532304 95.3765 -27.1788 0.542808 7.42493 58.4373 -5.31508 -27.1371 65.6545 -6.50393 -4.66656 162.37 6.4587 59.943 -37.2209 7.02877 -0.608531 70.3802 14.1331 39.7679 33.5626 12.938 69.1858 -0.0872967 7.34007 -89.7058 12.1925 -0.0343078 0.589497 0.521447 -0.00835701 0.590409 -22.0128 -0.209883 0.551925 -2.0001 -0.2099 0.551921 103.623 2.36233 -75.8868 24.7565 65.7456 -42.5107 -10.3263 -13.2367 -119.009 -15.2916 -0.87111 1.45332 -76.593 -9.30215 100.347 -47.637 -30.3469 -69.2454 14.6825 -1.49843 -123.002 -5.63615 -0.153687 -2.38584 -2.47019 -6.34254 47.7741 9.34282 -17.1951 -41.4504 
-132.485 14.2155 50.3854 -14.8802 -10.6292 -98.7771 179.13 -0.29384 96.2629 -24.9391 -1.18179 6.76689 43.9464 -8.00843 -25.8399 51.2144 -6.04521 -12.3457 162.514 7.14031 59.5624 -39.4499 7.59557 -0.471445 70.8502 14.9101 40.8378 30.1071 12.1821 72.4321 0.203355 7.59419 -89.4282 11.6811 0.672747 1.06922 0.00994254 0.719181 1.03858 -22.5221 0.320331 1.22195 -2.50945 0.320332 1.22197 105.74 -5.70058 -70.01 30.8875 67.9563 -53.9531 -12.7617 -11.6435 -121.401 -11.0647 -0.642428 1.62977 -74.3966 -11.8425 106.099 -39.7934 -23.3136 -80.5992 20.0587 -5.67809 -118.848 -9.22563 -0.263165 -1.48723 10.1669 -3.92349 34.9449 1.3123 -13.379 -30.6378 
-131.995 14.4879 50.2733 -16.0248 -10.6356 -98.3728 179.872 -1.1435 97.7657 -21.6918 -1.42693 6.4137 37.8128 -9.18126 -22.1977 42.5029 -4.27732 -13.8382 162.424 6.74683 59.5955 -40.602 8.1005 -0.71631 70.6016 15.7473 43.1869 26.9789 11.1088 73.5548 -0.0103796 7.67073 -89.6772 11.5313 0.130418 0.629605 -0.139739 0.15799 0.623283 -22.6737 -0.064838 0.6397 -2.66104 -0.0648525 0.639702 104.852 -5.73645 -73.0024 29.4195 68.6026 -56.7692 -14.1608 -10.6939 -119.119 -7.06001 -0.336306 0.464548 -75.0476 -34.0235 101.711 -18.0213 -38.2392 -85.0174 11.2207 -1.99573 -116.8 -6.06977 -0.245231 0.311681 3.18812 -5.34489 52.1021 5.03629 -18.2211 -46.399 
-131.677 14.6481 50.4422 -17.254 -9.69829 -98.0165 -179.231 -4.0769 98.6966 -18.2818 2.99632 6.1773 39.7693 -8.7831 -20.8756 42.5858 -5.45339 -19.6812 162.488 5.70655 59.2668 -39.9769 7.3673 -1.48212 70.6173 16.0803 44.9536 26.7863 10.6844 71.7943 -0.109652 7.70741 -89.7792 11.4587 -0.114996 0.45122 -0.212292 -0.0950016 0.455868 -22.747 -0.245272 0.395826 -2.73433 -0.245298 0.39581 104.489 -6.00296 -74.2864 30.6665 69.3775 -58.2608 -9.85463 -14.0304 -115.522 -9.09436 -0.361155 -0.699637 -76.5664 -31.8487 99.2941 -18.1395 -42.8134 -81.0556 8.8395 -0.186829 -120.152 -5.69897 -0.26301 1.63116 4.01594 -4.43414 50.5665 5.91257 -17.6389 -44.6757 
